<svg xmlns="http://www.w3.org/2000/svg" viewBox="0 0 512 512">
	<defs>
		<style>
			#kitty #head {
				fill: hsl(220, 66%, 66%);
			}

			#map {
				fill: white;
			}
		</style>
	</defs>

	<rect width="512" height="512" fill="hsl(220, 66%, 66%)" style="display:none" />

	<g id="map" transform="translate(256 256) scale(1 -1) translate(-256 -256)">
		<g transform="scale(22) translate(-0.35 -1029)">
			<path class="outline" d="m8 1030.4 8 1v19l -8 -1z" />
			<path class="outline" d="m2 1031.4 6 -1v19l -6 1z" />
			<path class="outline" d="m16 1031.4 6 -1.5v 19.5l -6 1 z" />
			<path d="m3 1032.4 5 -1v17l -5 1z" />
			<path d="m8 1031.4 8 1v17l -8 -1z" />
			<path d="m21 1048.4 -5 1v -17l5 -1z" />
			<path d="m5.6875 1031.8 -2.3125 0.5 4.625 4.9v -2.9l -2.3125 -2.5z" />
			<path d="m21 1046.4 -5 1v -6l5 -3z" />
			<path d="m21 1048.4 -5 1v -6l5 -3z" />
			<path d="m8 1042.4 8 -1v6l -8 -1z" />
			<path d="m8 1044.4 8 -1v6l -8 -1z" />
			<path d="m3 1045.4 5 -3v4l -5 1z" />
			<path d="m3 1047.4 5 -3v4l -5 1z" />
			<path d="m8 8.8008v -2.8985l4 8.6597h -1.469z" transform="translate(0 1028.4)" />
		</g>
	</g>

	<g id="kitty" transform="translate(256, 256) scale(0.9) translate(-256, -256)">
		<path id="head" d="M 204.6, 186.1 l -42.4 -69.5 c -1.6 -4 -5.4 -6.8 -9.7 -7.2 -4.3 -.4 -8.5, 1.6 -10.8, 5.3 -112.2, 238.9 -53.9, 304.5, 114.4, 303.7, 252.7, 1, 166.6 -206.3, 114.4 -310.7 -5.1-7.9 -16.9-6.9 -20.6, 1.8 l -42.4, 76.5 h -102.9 Z"/>
	</g>
</svg>